# xmcd
#
# Track frame offsets:
#	150
#	13650
#	27975
#	39225
#	53925
#	65925
#	84750
#	97800
#	119700
#	133200
#	147525
#	158775
#	173475
#	185475
#	204300
#	217350
#
# Disc length: 3190 seconds
#
# Revision: 1
# Processed by: cddbd v1.5.2PL0 Copyright (c) Steve Scherf et al.
# Submitted via: audiograbber 1.83.01
#
DISCID=e90c7410
DTITLE=Various Artist - Party Tyme Country Gold 2
DYEAR=2005
DGENRE=Karaoke
TTITLE0=Johnny Cash - Ring Of Fire
TTITLE1=Hank Williams - Cold, Cold Heart
TTITLE2=Patsy Cline - Walkin' After Midnight
TTITLE3=Nat King Cole - Ramblin' Rose
TTITLE4=Loretta Lynn - Don't Come Home A Drinkin'
TTITLE5=Ray Price - For The Good Times (Lay Your Head)
TTITLE6=Brenda Lee - I'm Sorry
TTITLE7=Marty Robbins - El Paso
TTITLE8=Johnny Cash - Ring Of Fire
TTITLE9=Hank Williams - Cold, Cold Heart
TTITLE10=Patsy Cline - Walkin' After Midnight
TTITLE11=Nat King Cole - Ramblin' Rose
TTITLE12=Loretta Lynn - Don't Come Home A Drinkin'
TTITLE13=Ray Price - For The Good Times (Lay Your Head)
TTITLE14=Brenda Lee - I'm Sorry
TTITLE15=Marty Robbins - El Paso
EXTD=
EXTT0=
EXTT1=
EXTT2=
EXTT3=
EXTT4=
EXTT5=
EXTT6=
EXTT7=
EXTT8=
EXTT9=
EXTT10=
EXTT11=
EXTT12=
EXTT13=
EXTT14=
EXTT15=
PLAYORDER=
